Coordinates																	
version=1																	
nRows=56																	
nColumns=18																	
inDegrees=yes																	
																	
"Units are S.I. units (second, meters, Newtons, ...)"																	
"If the header above contains a line with 'inDegrees', this indicates whether rotational values are in degrees (yes) or radians (no)."																	
																	
endheader																	
time	/jointset/hip_l/hip_flexion_l/value	/jointset/hip_l/hip_adduction_l/value	/jointset/hip_l/hip_rotation_l/value	/jointset/hip_r/hip_flexion_r/value	/jointset/hip_r/hip_adduction_r/value	/jointset/hip_r/hip_rotation_r/value	/jointset/knee_l/knee_angle_l/value	/jointset/knee_r/knee_angle_r/value	/jointset/ankle_l/ankle_angle_l/value	/jointset/ankle_r/ankle_angle_r/value	/jointset/subtalar_l/subtalar_angle_l/value	/jointset/subtalar_r/subtalar_angle_r/value	/jointset/mtp_l/mtp_angle_l/value	/jointset/mtp_r/mtp_angle_r/value	/jointset/back/lumbar_extension/value	/jointset/back/lumbar_bending/value	/jointset/back/lumbar_rotation/value
25.01	33.96256689	-16.76802665	-3.6678885	33.96256689	-16.76802665	-3.6678885	-115.5229247	-115.5229247	41.79338247	41.79338247	-24.69606811	-24.69606811	-8.58966086	-8.58966086	-2.2709729	-30.30024924	43.55127872
25.02	25.27532611	-3.89859956	-0.64807524	25.27532611	-3.89859956	-0.64807524	-18.3820895	-18.3820895	-23.45794136	-23.45794136	-30.03473173	-30.03473173	30.35202486	30.35202486	-39.57291405	-2.23939896	14.08380032
25.03	-5.53791229	-2.0144935	5.65138642	-5.53791229	-2.0144935	5.65138642	-111.150378	-111.150378	44.22830528	44.22830528	-11.6813233	-11.6813233	55.7043122	55.7043122	-21.35979144	-23.72508377	-27.22838741
25.04	27.36455322	11.14512995	9.24366699	27.36455322	11.14512995	9.24366699	-52.18967233	-52.18967233	21.38484027	21.38484027	-30.56565091	-30.56565091	49.50966826	49.50966826	-11.77051819	-40.4220345	35.28315276
25.05	49.99637951	9.12459039	7.31879253	49.99637951	9.12459039	7.31879253	-106.0350947	-106.0350947	-18.24318756	-18.24318756	-7.74741473	-7.74741473	1.8494117	1.8494117	-1.71083145	32.16981426	-6.4128832
25.06	-9.46551164	15.6156025	30.00929734	-9.46551164	15.6156025	30.00929734	-85.39085305	-85.39085305	39.48761299	39.48761299	-16.48458906	-16.48458906	25.67853356	25.67853356	21.94969752	27.23655505	-17.52157026
25.07	-0.29842663	9.30279299	9.38200344	-0.29842663	9.30279299	9.38200344	-34.20829164	-34.20829164	9.47933607	9.47933607	27.80708059	27.80708059	-5.97948321	-5.97948321	-1.58270313	26.8824761	-13.26524577
25.08	17.66511333	-17.99896175	-0.43291982	17.66511333	-17.99896175	-0.43291982	-65.6912972	-65.6912972	22.24029487	22.24029487	33.84210997	33.84210997	31.87605825	31.87605825	3.17068222	8.36938363	-7.44636253
25.09	2.55793301	3.34325968	0.85989945	2.55793301	3.34325968	0.85989945	-37.82692642	-37.82692642	-0.55949326	-0.55949326	-2.51117225	-2.51117225	11.0866228	11.0866228	-5.97934788	-33.29597255	-0.67957191
25.1	-24.96887307	-13.17738923	2.34848793	-24.96887307	-13.17738923	2.34848793	-87.12783775	-87.12783775	-27.26022269	-27.26022269	-15.0749444	-15.0749444	23.04906112	23.04906112	-19.90803781	28.84341105	15.18428554
25.11	37.3954001	-15.13928504	2.37063682	37.3954001	-15.13928504	2.37063682	-56.57531924	-56.57531924	-8.40747037	-8.40747037	-11.92899826	-11.92899826	7.45433713	7.45433713	16.62443998	-14.83969031	28.09971478
25.12	-22.86507046	14.81986962	3.09849373	-22.86507046	14.81986962	3.09849373	-7.31572278	-7.31572278	-47.47309971	-47.47309971	-20.44156561	-20.44156561	-8.34484644	-8.34484644	36.07689197	40.5043572	6.18791662
25.13	26.87100213	-6.35010898	13.30421021	26.87100213	-6.35010898	13.30421021	-36.82955254	-36.82955254	38.47906362	38.47906362	7.58888834	7.58888834	7.28232798	7.28232798	19.84458874	8.47652251	-42.51547366
25.14	49.84039308	7.37093539	-11.49862087	49.84039308	7.37093539	-11.49862087	-8.74950727	-8.74950727	-24.45745356	-24.45745356	-19.25915771	-19.25915771	37.56774109	37.56774109	5.06374566	31.9321089	28.6428397
25.15	-6.37874679	-17.13066656	32.38832544	-6.37874679	-17.13066656	32.38832544	-106.3363637	-106.3363637	-28.72918106	-28.72918106	-5.95770544	-5.95770544	46.69469962	46.69469962	-27.79257279	-40.78951993	5.28609063
25.16	68.04822253	10.18279877	18.95927991	68.04822253	10.18279877	18.95927991	-104.6459792	-104.6459792	2.07034162	2.07034162	34.36689713	34.36689713	8.97217274	8.97217274	4.55227319	-25.2448029	-12.62252591
25.17	38.24161313	-3.94536039	10.20018045	38.24161313	-3.94536039	10.20018045	-8.54926868	-8.54926868	-28.89770099	-28.89770099	3.18390019	3.18390019	54.29020821	54.29020821	33.9542402	-8.51804893	32.03825097
25.18	-7.99730894	-18.35246897	12.8064688	-7.99730894	-18.35246897	12.8064688	-97.10244593	-97.10244593	-18.53046159	-18.53046159	-9.21917971	-9.21917971	-3.11598228	-3.11598228	17.81398063	-12.60634333	43.11622029
25.19	-8.86322446	-19.82454343	21.98651243	-8.86322446	-19.82454343	21.98651243	-91.61602392	-91.61602392	-15.63423493	-15.63423493	-25.80280513	-25.80280513	-5.33451952	-5.33451952	17.56459011	20.08967686	42.62767126
25.2	46.75339577	11.54426739	-16.00756401	46.75339577	11.54426739	-16.00756401	-16.18935566	-16.18935566	33.82110497	33.82110497	-12.67451792	-12.67451792	16.63536955	16.63536955	-10.85190702	8.35773606	-9.81750445
25.21	21.09273512	6.3688875	19.08042271	21.09273512	6.3688875	19.08042271	-61.04934896	-61.04934896	-13.92540286	-13.92540286	25.972672	25.972672	24.61350492	24.61350492	-31.22957006	27.78703233	-35.11358088
25.22	-27.54303142	-19.77063761	-3.56781707	-27.54303142	-19.77063761	-3.56781707	6.51495585	6.51495585	-27.20651355	-27.20651355	17.55040334	17.55040334	-3.87158704	-3.87158704	-7.46157549	-41.78813099	41.51031057
25.23	53.99679308	17.88737473	-17.0773457	53.99679308	17.88737473	-17.0773457	9.88366637	9.88366637	-17.40160574	-17.40160574	34.83905858	34.83905858	35.6094119	35.6094119	29.68308593	30.86558189	-22.53916331
25.24	48.87537415	3.04527859	34.00898373	48.87537415	3.04527859	34.00898373	-75.51095327	-75.51095327	-41.6639755	-41.6639755	-24.53603698	-24.53603698	34.08136005	34.08136005	-8.93134602	10.71541438	-33.3957135
25.25	-25.90030828	1.09837031	34.60151176	-25.90030828	1.09837031	34.60151176	-51.96718386	-51.96718386	-45.71003721	-45.71003721	30.07159333	30.07159333	-4.50041897	-4.50041897	10.93362783	40.38164138	25.12543517
25.26	-17.2440805	-4.18864589	-3.34093055	-17.2440805	-4.18864589	-3.34093055	3.04958487	3.04958487	4.13005835	4.13005835	2.97947436	2.97947436	18.46168338	18.46168338	9.08430753	42.41461965	28.7167956
25.27	1.91794334	-4.43479411	14.2411123	1.91794334	-4.43479411	14.2411123	-20.05793793	-20.05793793	4.8643728	4.8643728	-34.08678135	-34.08678135	4.41932554	4.41932554	-10.50331074	24.17121087	-43.84280668
25.28	56.47820493	-15.09477657	-8.77282669	56.47820493	-15.09477657	-8.77282669	-78.9113261	-78.9113261	-16.06368403	-16.06368403	33.92532217	33.92532217	12.67393157	12.67393157	-43.19002657	-1.81130656	21.33017825
25.29	63.80064313	-1.63689343	24.67633586	63.80064313	-1.63689343	24.67633586	6.36544617	6.36544617	42.93923862	42.93923862	26.71514908	26.71514908	24.82011799	24.82011799	19.95271199	-13.63874415	3.76731122
25.3	12.41344625	4.73483905	29.4311915	12.41344625	4.73483905	29.4311915	-16.08258021	-16.08258021	-16.62298149	-16.62298149	21.82339949	21.82339949	-1.13695459	-1.13695459	38.94397008	17.20047386	34.3764373
25.31	-2.93701279	4.97511412	2.12488132	-2.93701279	4.97511412	2.12488132	-53.98878653	-53.98878653	9.82005991	9.82005991	-10.53401295	-10.53401295	29.73093834	29.73093834	-29.80913566	-1.33134631	22.01790767
25.32	8.8212057	6.30062142	-5.1347311	8.8212057	6.30062142	-5.1347311	-47.17735285	-47.17735285	-25.46695259	-25.46695259	-7.71195732	-7.71195732	9.48355411	9.48355411	-31.10638467	29.13213392	24.43145151
25.33	-19.82969297	3.49745003	-3.21547705	-19.82969297	3.49745003	-3.21547705	-30.2554157	-30.2554157	23.24478767	23.24478767	8.4617879	8.4617879	22.58813285	22.58813285	26.60290713	31.99572783	21.0562335
25.34	52.74996315	9.882021	-16.89861704	52.74996315	9.882021	-16.89861704	-112.5962607	-112.5962607	-37.92153149	-37.92153149	-29.84161366	-29.84161366	26.21499529	26.21499529	30.70462126	5.82957623	41.42810315
25.35	25.55994506	-9.70443061	-3.13939109	25.55994506	-9.70443061	-3.13939109	-110.4900288	-110.4900288	15.46993986	15.46993986	21.27235838	21.27235838	37.85677827	37.85677827	-39.52129476	-10.65742702	14.99981826
25.36	8.77963921	9.43303712	8.28777076	8.77963921	9.43303712	8.28777076	6.37275157	6.37275157	28.71595294	28.71595294	0.38985023	0.38985023	46.9431506	46.9431506	-38.27798266	44.69177438	-10.60389254
25.37	30.09225537	12.64716081	32.82909039	30.09225537	12.64716081	32.82909039	-75.97830624	-75.97830624	-24.15301592	-24.15301592	25.58982631	25.58982631	47.43876337	47.43876337	-29.13555108	0.25078004	-13.17802921
25.38	0.31629783	-4.10980724	29.18484534	0.31629783	-4.10980724	29.18484534	-89.63183581	-89.63183581	-46.32462129	-46.32462129	27.79721006	27.79721006	43.31638964	43.31638964	21.62013498	-8.84854582	8.45408338
25.39	15.5833561	-2.15231628	-18.51720319	15.5833561	-2.15231628	-18.51720319	-35.97740587	-35.97740587	-18.65651973	-18.65651973	16.21141345	16.21141345	19.32300886	19.32300886	-25.1637202	-44.96255297	-41.85797934
25.4	63.14126398	1.23835489	-5.7661	63.14126398	1.23835489	-5.7661	-74.05971938	-74.05971938	28.40016744	28.40016744	-24.16372557	-24.16372557	45.42111562	45.42111562	-37.532994	30.7427749	43.77201671
25.41	6.80769496	-4.53406174	9.91548241	6.80769496	-4.53406174	9.91548241	-84.15367026	-84.15367026	1.56633362	1.56633362	-15.2310938	-15.2310938	1.73944962	1.73944962	-5.06846897	-44.56946855	-24.08291108
25.42	-21.83826979	-10.16088436	4.14946541	-21.83826979	-10.16088436	4.14946541	-31.53589774	-31.53589774	18.66593931	18.66593931	-8.90650424	-8.90650424	-5.55409728	-5.55409728	-19.4284287	-37.61147091	-42.82961984
25.43	-17.00526472	-8.01232581	18.82195374	-17.00526472	-8.01232581	18.82195374	-107.1041873	-107.1041873	-24.30880637	-24.30880637	-8.77037679	-8.77037679	14.6236795	14.6236795	41.66590785	42.78615216	28.93196201
25.44	2.45063495	-8.96840003	23.45212035	2.45063495	-8.96840003	23.45212035	-6.21502884	-6.21502884	36.71024274	36.71024274	-1.82553767	-1.82553767	47.34516881	47.34516881	-1.61133333	-3.47293607	27.33073297
25.45	-10.74078216	8.4711439	-6.38055204	-10.74078216	8.4711439	-6.38055204	-77.70059424	-77.70059424	15.73446919	15.73446919	-13.23246729	-13.23246729	2.25090743	2.25090743	44.68040967	30.15525577	-36.56284569
25.46	-0.53125572	-11.7637389	23.24035181	-0.53125572	-11.7637389	23.24035181	-53.72304784	-53.72304784	-40.13118093	-40.13118093	-1.2759524	-1.2759524	9.78322829	9.78322829	12.09275124	2.45211682	23.22929479
25.47	19.42621132	-18.67976757	1.09652359	19.42621132	-18.67976757	1.09652359	-59.80034212	-59.80034212	-41.95341273	-41.95341273	27.11992367	27.11992367	19.1279929	19.1279929	13.01353199	41.49045613	4.72210302
25.48	1.24257402	17.59999816	-8.77432338	1.24257402	17.59999816	-8.77432338	-47.62896999	-47.62896999	48.98046449	48.98046449	-9.90079021	-9.90079021	39.17358645	39.17358645	-31.95955428	12.96233099	34.75566504
25.49	66.23751741	11.98804281	-3.2708632	66.23751741	11.98804281	-3.2708632	-40.11663353	-40.11663353	-23.73235659	-23.73235659	-33.49452268	-33.49452268	50.89710563	50.89710563	10.9406995	-17.48333405	-25.65064835
25.5	46.79412833	-7.59592662	-17.42427275	46.79412833	-7.59592662	-17.42427275	-112.4174077	-112.4174077	6.02120091	6.02120091	31.92599305	31.92599305	25.40349728	25.40349728	-35.40535943	-23.66637025	12.91137729
25.51	7.57136874	-11.82042544	-8.36229507	7.57136874	-11.82042544	-8.36229507	-78.1622975	-78.1622975	0.68707042	0.68707042	-2.12866391	-2.12866391	-6.87191757	-6.87191757	21.17013349	-36.68093304	-22.13080196
25.52	36.11468599	-2.31954808	18.28261942	36.11468599	-2.31954808	18.28261942	-85.42562799	-85.42562799	-18.96536049	-18.96536049	-1.31588701	-1.31588701	39.47264896	39.47264896	-33.60045843	-36.24644279	16.07898195
25.53	-19.21539168	2.50692155	9.98932378	-19.21539168	2.50692155	9.98932378	-55.62094365	-55.62094365	-3.54703836	-3.54703836	-17.10882333	-17.10882333	15.16250724	15.16250724	35.04409243	36.37127709	38.38852093
25.54	7.24856707	-10.81826251	22.12607631	7.24856707	-10.81826251	22.12607631	-40.72317743	-40.72317743	-9.32421977	-9.32421977	3.16726362	3.16726362	18.40267493	18.40267493	37.98539704	-43.42216914	42.77402544
25.55	-16.95610499	17.23202044	-3.39206365	-16.95610499	17.23202044	-3.39206365	-67.74317468	-67.74317468	16.46362715	16.46362715	-21.34238959	-21.34238959	41.59348443	41.59348443	-20.04231774	-24.90059229	25.911996
25.56	-22.28034983	2.02459171	21.74691191	-22.28034983	2.02459171	21.74691191	3.39784489	3.39784489	45.7750116	45.7750116	20.38346524	20.38346524	55.64163791	55.64163791	28.0791935	-1.35376831	12.58631836
